<?xml version="1.0" encoding="utf-8"?>
<!-- Generator: Adobe Illustrator 22.0.1, SVG Export Plug-In . SVG Version: 6.00 Build 0)  -->
<svg version="1.1" id="Layer_1" xmlns="http://www.w3.org/2000/svg" xmlns:xlink="http://www.w3.org/1999/xlink" x="0px" y="0px"
	 viewBox="0 0 68.2 70.2" style="enable-background:new 0 0 68.2 70.2;" xml:space="preserve">
<style type="text/css">
	.st0{fill:#095FA8;}
</style>
<g>
	<path class="st0" d="M22.7,14.4c0,0,0.1,0,0.1,0c0.1-0.1,0.2-0.1,0.1-0.3c0.3-0.3,0.5-0.8,0.3-1.3c-0.1-0.2-0.3-0.2-0.5-0.2
		c-0.1,0-0.3,0-0.4,0v-0.1l-3.5-1.4c-0.2-0.7-0.5-1.4-0.8-2c-0.1-1.5-1.4-2.5-1.4-4c0.2-0.3,0.4-0.2,0.6-0.2c0.1,0,0.3,0,0.4,0
		c0.2-0.1,0.3-0.2,0.2-0.5c0.1,0,0.1-0.2,0.2-0.2c0-0.4,0-0.7,0.4-0.8C18.2,3,18,2.7,18,2.4c0.3-0.5-0.1-1.2-0.1-1.7
		c-0.5-0.2-1.1-0.6-1.7-0.6c-0.3,0-0.5,0.1-0.8,0.3c-0.5,0.5-0.8,1.1-0.7,1.6c0,1.1,0.2,1.1,0.3,1.8c-0.2,0.1-0.2,0.5-0.5,0.4
		c-0.4,0.5-0.9,1.1-1.3,1.6c-1.4,1.2-3.3,2.4-3.5,4.4c0.1,1.5,0.2,3,0.1,4.6c0.1,0,0.1,0,0.2,0c0.1,0,0.2,0,0.3,0c0,0,0,0.1,0,0.1h0
		c0,0.1,0,0.2,0,0.2h0.1c0.2,0.5,0,1.2,0.2,1.7c0.1,0.2,0.1,0.5,0.4,0.6c0-0.1,0-0.1,0-0.2l0.2,0.4c0.1,0.1,0.2-0.1,0.2-0.2
		c0.1,0.1,0,0.2,0.1,0.3c0.1,0.1,0.1,0.2,0.2,0.1l0.1-1.3c0.2,0.4,0.1,0.9,0.2,1.3H12c0.2-0.2,0.1-0.5,0.1-0.8
		c-0.1-0.8,0-1.4-0.3-2.1c0.1-0.1,0.1-0.2,0.1-0.3c0.1,0,0.1-0.1,0.2-0.1c0.2-1.4,0.1-3,0.2-4.3l0.5-0.4c0.4,2,0.1,4-0.2,6
		c0.1,0.4,0.2,0.8,0.1,1.2l0,0.7h0.1l0-0.3c0,0.7-0.2,1.6,0.3,2c0,1.9,0,3.8-0.3,5.6c-1.1,2.8-2.9,5.5-2.7,8.6l1.4,0l0.1-0.3
		c1.2,0.2,2.6,0.5,3.6-0.3c-0.1-0.7-1.1-0.4-1.6-0.7c-0.2-0.1-0.5-0.2-0.7-0.5l-0.2,0c0.3-1.4,1-2.7,1.7-3.9c1.8-2.3,1.7-5.3,2-8.2
		c0.1-0.1,0.2-0.1,0.3-0.1c0.1,0,0.2,0,0.3,0c0.4,0,0.8,0,0.7-0.4c1.7,0.1,3.2,1,4.9,1.2c0,0.2-0.1,0.3-0.2,0.5c0,0.5,0,0.9-0.1,1.3
		v0.3c-0.1,2.2,0,3.5,0.4,5.6l1.2,0l0.1-0.3c1.1-0.1,2.5,0.1,3.6-0.7c-0.2-0.6-1.1-0.2-1.6-0.5c-0.3-0.1-0.7-0.3-0.8-0.6
		c-0.1-2.2,0-4.6,0.4-6.8c-1.7-2.3-4.1-2.8-6.3-3.9c0.1-0.3,0-0.2,0.1-0.4c-0.6,0-0.9-0.5-1.4-0.3c-0.1-0.6-0.2-1.2,0-1.8
		c0.2,0.1,0.3,0.2,0.5,0.4c1.1,0.4,2.3,0.5,3.4,1l0.4-0.3"/>
	<path class="st0" d="M5.1,57.2h13.2V33.7H5.1L5.1,57.2L5.1,57.2z M15.4,51.9c-0.2,0.5-0.7,0.8-1.3,1.2c-0.6,0.3-1.4,0.5-2.3,0.5
		c-0.9,0-1.7-0.2-2.4-0.5c-0.7-0.4-1.1-0.8-1.3-1.4c-0.2-0.6-0.3-1.3-0.3-2.3v-0.9h3.3V50c0,0.5,0,0.8,0.1,1
		c0.1,0.1,0.2,0.2,0.5,0.2c0.2,0,0.4-0.1,0.5-0.3c0.1-0.2,0.2-0.5,0.2-0.8c0-0.8-0.1-1.3-0.3-1.6s-0.8-0.7-1.6-1.2
		c-0.9-0.6-1.5-1-1.7-1.3C8.4,45.8,8.1,45.4,8,45c-0.2-0.5-0.3-1.1-0.3-1.8c0-1,0.1-1.8,0.4-2.3c0.3-0.5,0.7-0.8,1.3-1.1
		c0.6-0.3,1.3-0.4,2.1-0.4c0.9,0,1.7,0.1,2.3,0.4s1.1,0.7,1.3,1.1c0.2,0.5,0.3,1.2,0.3,2.3v0.5h-3.3v-1c0-0.5,0-0.8-0.1-0.9
		c-0.1-0.1-0.2-0.2-0.4-0.2s-0.4,0.1-0.5,0.3C11,42.1,11,42.4,11,42.7c0,0.5,0.1,0.8,0.2,1c0.1,0.2,0.5,0.5,1,0.8
		c1.6,0.9,2.6,1.7,3,2.3c0.4,0.6,0.6,1.5,0.6,2.9C15.7,50.7,15.6,51.4,15.4,51.9"/>
	<path class="st0" d="M20,57.2h13.2V28.4H20V57.2z M30.6,42.2h-2.2v11.2h-3.7V42.2h-2.2v-2.8h8V42.2z"/>
	<path class="st0" d="M34.9,57.2h13.2V22.9H34.9V57.2z M44.8,53.5h-6.1V39.4h5.8v2.8h-2.5v2.7h2.3v2.7h-2.3v3.1h2.7V53.5z"/>
	<path class="st0" d="M56.1,41.8v3.6c0.1,0,0.2,0,0.3,0c0.3,0,0.6-0.1,0.7-0.2c0.1-0.2,0.2-0.5,0.2-1V43c0-0.5-0.1-0.8-0.2-0.9
		C56.9,41.9,56.6,41.8,56.1,41.8"/>
	<path class="st0" d="M49.8,57.2H63V17.6H49.8V57.2z M60.3,44.6c0,0.9-0.1,1.5-0.3,2c-0.2,0.4-0.5,0.7-1,0.9c-0.5,0.2-1.1,0.3-2,0.3
		h-1v5.7h-3.4V39.4h3.4c1,0,1.8,0.1,2.3,0.2c0.5,0.2,0.9,0.4,1.2,0.7c0.3,0.3,0.5,0.7,0.6,1.1s0.1,1.1,0.1,2L60.3,44.6L60.3,44.6z"
		/>
	<rect x="5.1" y="60.1" class="st0" width="2.6" height="9.8"/>
	<polygon class="st0" points="13.9,60.1 13.9,62.1 12.4,62.1 12.4,69.9 9.8,69.9 9.8,62.1 8.3,62.1 8.3,60.1 	"/>
	<path class="st0" d="M21.2,60.1l1.5,9.8H20l-0.1-1.8H19l-0.2,1.8h-2.7l1.3-9.8H21.2z M19.8,66.4c-0.1-1.1-0.3-2.5-0.4-4.1
		c-0.3,1.9-0.4,3.2-0.5,4.1H19.8z"/>
	<path class="st0" d="M29.1,64.4h-2.6v-1.7c0-0.5,0-0.8-0.1-0.9c-0.1-0.1-0.2-0.2-0.4-0.2c-0.2,0-0.4,0.1-0.4,0.2
		c-0.1,0.1-0.1,0.5-0.1,1v4.6c0,0.5,0,0.8,0.1,0.9c0.1,0.1,0.2,0.2,0.4,0.2s0.3-0.1,0.4-0.2c0.1-0.1,0.1-0.5,0.1-1V66h2.6v0.4
		c0,1-0.1,1.7-0.2,2.2c-0.1,0.4-0.5,0.8-1,1.1c-0.5,0.3-1.1,0.5-1.8,0.5c-0.8,0-1.4-0.1-1.9-0.4c-0.5-0.3-0.8-0.6-1-1.1
		c-0.2-0.5-0.2-1.2-0.2-2.2v-2.8c0-0.7,0-1.2,0.1-1.6c0-0.4,0.2-0.7,0.4-1c0.2-0.3,0.6-0.6,1-0.8s0.9-0.3,1.5-0.3
		c0.8,0,1.4,0.1,1.9,0.4c0.5,0.3,0.8,0.7,1,1.1c0.2,0.4,0.2,1.1,0.2,2L29.1,64.4L29.1,64.4z"/>
	<path class="st0" d="M34.5,60.1l1.5,9.8h-2.6l-0.1-1.8h-0.9l-0.2,1.8h-2.7l1.3-9.8H34.5z M33.1,66.4c-0.1-1.1-0.3-2.5-0.4-4.1
		c-0.3,1.9-0.4,3.2-0.5,4.1H33.1z"/>
	<path class="st0" d="M36.4,60.1h1.9c1.2,0,2.1,0.1,2.5,0.2s0.8,0.3,1,0.6c0.2,0.3,0.4,0.5,0.4,0.9c0.1,0.3,0.1,0.9,0.1,1.9V67
		c0,0.9,0,1.5-0.1,1.8c-0.1,0.3-0.2,0.5-0.4,0.7c-0.2,0.2-0.5,0.3-0.8,0.4s-0.8,0.1-1.4,0.1h-3.3L36.4,60.1L36.4,60.1z M39,61.8v6.5
		c0.4,0,0.6-0.1,0.7-0.2c0.1-0.1,0.1-0.5,0.1-1.2V63c0-0.4,0-0.7,0-0.8c0-0.1-0.1-0.2-0.2-0.3C39.5,61.8,39.3,61.8,39,61.8"/>
	<polygon class="st0" points="43.4,60.1 47.7,60.1 47.7,62.1 46,62.1 46,63.9 47.6,63.9 47.6,65.8 46,65.8 46,67.9 47.8,67.9 
		47.8,69.9 43.4,69.9 	"/>
	<path class="st0" d="M56.6,60.1v9.8h-2.3v-6.6l-0.9,6.6h-1.6l-1-6.5v6.5h-2.3v-9.8h3.3c0.1,0.6,0.2,1.3,0.3,2.1l0.4,2.5l0.6-4.6
		L56.6,60.1L56.6,60.1z"/>
	<path class="st0" d="M63.1,60.1l-1.9,6.2v3.5h-2.4v-3.5L57,60.1h2.4c0.4,1.9,0.6,3.2,0.6,3.9c0.1-1.1,0.4-2.3,0.7-3.9L63.1,60.1
		L63.1,60.1z"/>
</g>
</svg>
